<?xml version="1.0" standalone="no"?>
<!DOCTYPE svg PUBLIC "-//W3C//DTD SVG 20010904//EN"
 "http://www.w3.org/TR/2001/REC-SVG-20010904/DTD/svg10.dtd">
<svg version="1.0" xmlns="http://www.w3.org/2000/svg"
 width="512.000000pt" height="512.000000pt" viewBox="0 0 512.000000 512.000000"
 preserveAspectRatio="xMidYMid meet">
<metadata>
Created by potrace 1.14, written by Peter Selinger 2001-2017
</metadata>
<g transform="translate(0.000000,512.000000) scale(0.100000,-0.100000)"
fill="#000000" stroke="none">
<path d="M1630 5113 c-630 -61 -1166 -430 -1448 -998 -71 -144 -141 -364 -157
-495 -4 -30 -9 -58 -11 -62 -3 -4 -6 -64 -9 -135 -3 -109 -1 -134 14 -169 24
-54 75 -100 125 -114 30 -8 702 -10 2441 -8 l2400 3 42 30 c26 18 53 49 67 78
23 45 25 58 21 157 -6 177 -40 365 -90 500 -9 25 -21 61 -27 80 -14 46 -97
212 -149 297 -240 391 -658 690 -1114 797 -177 41 -244 44 -1175 43 -492 0
-911 -2 -930 -4z"/>
<path d="M1310 2814 c-302 -50 -414 -197 -403 -526 8 -243 76 -353 252 -408
35 -11 131 -31 214 -45 234 -39 287 -59 312 -119 15 -36 12 -109 -6 -142 -15
-29 -65 -53 -132 -64 -56 -9 -286 -6 -352 5 -111 17 -154 11 -202 -32 -41 -37
-60 -87 -58 -151 3 -85 53 -132 156 -147 24 -3 51 -8 59 -10 91 -23 433 -25
541 -2 195 41 284 107 339 252 19 51 23 82 26 205 3 162 -6 231 -41 307 -53
117 -162 178 -372 209 -26 3 -57 8 -68 10 -10 2 -37 6 -60 9 -61 9 -156 35
-187 51 -40 21 -59 63 -54 122 3 27 10 59 17 70 15 24 56 49 95 57 55 12 289
13 380 1 99 -13 140 -7 186 26 81 57 91 212 18 266 -29 22 -115 44 -220 57
-102 13 -363 12 -440 -1z"/>
<path d="M2695 2819 c-301 -45 -450 -210 -481 -532 -15 -149 -8 -559 11 -667
32 -184 127 -329 261 -394 114 -56 207 -71 439 -70 245 1 383 44 493 153 66
66 104 137 132 244 28 110 34 193 33 447 0 283 -6 340 -43 465 -54 180 -185
299 -378 341 -80 18 -380 26 -467 13z m309 -344 c122 -15 197 -98 213 -235 8
-70 9 -418 1 -486 -14 -118 -57 -187 -143 -229 -58 -29 -290 -29 -355 0 -82
35 -130 106 -146 209 -9 67 -11 405 -2 492 17 160 90 237 238 251 30 3 56 6
57 7 4 3 78 -2 137 -9z"/>
<path d="M460 2787 c-25 -12 -53 -36 -68 -60 -31 -46 -30 -20 -34 -732 -3
-349 -4 -372 -23 -404 -31 -52 -65 -72 -131 -78 -94 -8 -130 -20 -163 -58 -84
-96 -32 -257 93 -289 56 -15 171 -12 266 5 175 32 271 139 306 344 4 22 9 289
11 593 4 552 4 553 -17 595 -12 23 -30 50 -41 60 -46 43 -134 54 -199 24z"/>
<path d="M3900 2787 c-22 -12 -52 -39 -67 -61 l-28 -39 -3 -684 c-2 -558 0
-689 12 -716 58 -140 250 -148 316 -12 19 39 20 62 20 344 0 194 4 309 11 322
5 11 22 24 35 30 52 19 81 -9 202 -199 229 -358 335 -518 359 -544 35 -37 95
-55 169 -52 94 4 164 50 184 123 6 22 10 285 10 699 0 705 0 700 -48 752 -79
85 -229 64 -282 -40 -19 -37 -20 -58 -20 -348 l0 -309 -23 -21 c-31 -29 -78
-29 -104 1 -11 12 -45 60 -75 107 -30 47 -90 139 -133 205 -43 66 -108 167
-144 223 -136 213 -159 233 -278 237 -57 1 -82 -3 -113 -18z"/>
<path d="M230 849 c-76 -7 -93 -13 -138 -46 -56 -42 -85 -98 -88 -173 -10
-224 130 -457 337 -559 151 -75 -12 -70 2244 -68 l2030 2 80 28 c238 84 398
289 421 539 11 122 -32 207 -129 256 l-46 23 -2323 2 c-1278 1 -2352 -1 -2388
-4z"/>
</g>
</svg>
