<?xml version="1.0" encoding="UTF-8" standalone="no"?>
<!DOCTYPE svg PUBLIC "-//W3C//DTD SVG 1.1//EN" "http://www.w3.org/Graphics/SVG/1.1/DTD/svg11.dtd">
<svg width="100%" height="100%" viewBox="0 0 512 512" version="1.1" xmlns="http://www.w3.org/2000/svg" xmlns:xlink="http://www.w3.org/1999/xlink" xml:space="preserve" xmlns:serif="http://www.serif.com/" style="fill-rule:evenodd;clip-rule:evenodd;stroke-linejoin:round;stroke-miterlimit:2;">
    <g transform="matrix(4.1626,0,0,4.94514,-445.383,-675.859)">
        <path d="M112.846,216.855C121.146,216.855 124.296,213.855 124.296,205.505L124.296,187.038C124.296,185.059 122.391,183.455 120.041,183.455L119.902,183.455C117.552,183.455 115.646,185.059 115.646,187.038L115.646,204.955C115.646,208.505 114.546,209.705 110.796,209.705C110.796,209.705 110.696,209.705 110.696,209.705C109.715,209.705 108.774,210.033 108.08,210.617C107.386,211.201 106.996,211.994 106.996,212.819C106.996,212.959 106.996,213.098 106.996,213.236C106.996,215.121 108.732,216.683 110.967,216.81C111.511,216.836 112.033,216.855 112.496,216.855L112.846,216.855Z" style="fill-rule:nonzero;"/>
        <path d="M142.146,216.905C152.296,216.905 156.496,214.055 156.496,207.355L156.496,206.205C156.496,199.355 153.246,197.655 146.446,196.805L143.296,196.405C138.296,195.705 137.546,195.105 137.546,193.205L137.546,193.055C137.546,190.955 139.046,190.055 144.296,190.055L144.796,190.055C146.593,190.055 148.618,190.185 150.722,190.492C151.914,190.667 153.137,190.389 154.063,189.733C154.988,189.078 155.523,188.111 155.523,187.093C155.546,186.874 155.546,186.66 155.546,186.455C155.546,185.274 154.618,184.236 153.269,183.909C150.239,183.311 146.383,183.005 143.996,183.005L143.196,183.005C133.096,183.005 128.746,185.855 128.746,192.505L128.746,193.655C128.746,200.755 132.396,202.205 138.846,202.955L141.996,203.355C147.146,204.105 147.746,204.905 147.746,206.705L147.746,206.855C147.746,209.105 146.196,209.855 140.996,209.855L140.446,209.855C138.561,209.855 136.451,209.716 134.217,209.388C133.024,209.214 131.802,209.493 130.876,210.149C129.951,210.805 129.417,211.771 129.417,212.79C129.396,213.007 129.396,213.219 129.396,213.422C129.396,214.62 130.351,215.669 131.726,215.98C134.885,216.593 138.74,216.905 141.346,216.905L142.146,216.905Z" style="fill-rule:nonzero;"/>
        <path d="M177.446,216.905C188.896,216.905 193.096,212.405 193.096,202.705L193.096,196.905C193.096,187.005 188.246,183.005 177.546,183.005L175.546,183.005C164.196,183.005 159.996,187.455 159.996,196.905L159.996,202.705C159.996,212.905 164.846,216.905 175.596,216.905L177.446,216.905ZM175.946,209.905C170.796,209.905 168.646,207.905 168.646,202.955L168.646,196.655C168.646,191.905 170.796,190.005 175.946,190.005L177.146,190.005C182.296,190.005 184.446,191.905 184.446,196.655L184.446,202.955C184.446,207.905 182.346,209.905 177.146,209.905L175.946,209.905Z" style="fill-rule:nonzero;"/>
        <path d="M221.546,198.157C221.546,198.813 221.034,199.39 220.287,199.577C219.54,199.763 218.736,199.513 218.312,198.963C214.972,194.635 209.932,188.102 207.605,185.086C206.82,184.069 205.477,183.455 204.036,183.455L202.552,183.455C201.423,183.455 200.341,183.833 199.543,184.505C198.745,185.176 198.296,186.088 198.296,187.038L198.296,212.92C198.296,213.858 198.739,214.757 199.526,215.42C200.314,216.083 201.382,216.455 202.496,216.455C202.496,216.455 202.496,216.455 202.497,216.455C204.816,216.455 206.696,214.873 206.696,212.92L206.696,201.701C206.696,201.045 207.209,200.467 207.956,200.281C208.702,200.095 209.506,200.344 209.93,200.894C213.283,205.235 218.353,211.801 220.688,214.825C221.473,215.842 222.815,216.455 224.256,216.455L225.741,216.455C226.869,216.455 227.952,216.078 228.75,215.406C229.548,214.734 229.996,213.823 229.996,212.873L229.996,187.012C229.996,186.068 229.551,185.164 228.759,184.497C227.967,183.83 226.892,183.455 225.772,183.455L225.771,183.455C223.438,183.455 221.546,185.047 221.546,187.011C221.546,190.124 221.546,194.678 221.546,198.157Z" style="fill-rule:nonzero;"/>
    </g>
    <path d="M23.044,426.769C10.317,426.769 0,437.086 0,449.813L-0,449.816C-0,466.308 6.552,482.125 18.213,493.787C29.875,505.448 45.692,512 62.184,512C160.649,512 351.351,512 449.816,512C466.308,512 482.125,505.448 493.787,493.787C505.448,482.125 512,466.308 512,449.816C512,449.815 512,449.814 512,449.813C512,437.086 501.683,426.769 488.956,426.769L23.044,426.769Z"/>
    <path d="M-0,178.58C-0,184.03 2.165,189.256 6.018,193.11C9.872,196.963 15.098,199.128 20.548,199.128C102.959,199.128 409.041,199.128 491.452,199.128C496.902,199.128 502.128,196.963 505.982,193.11C509.835,189.256 512,184.03 512,178.58C512,178.58 512,178.579 512,178.579C512,79.953 432.047,0 333.421,-0L178.579,0C79.953,0 0,79.953 -0,178.579L-0,178.58Z"/>
</svg>
