<svg xmlns="http://www.w3.org/2000/svg" xml:space="preserve" fill-rule="evenodd" stroke-linejoin="round" stroke-miterlimit="2" clip-rule="evenodd" viewBox="0 0 512 512"><path fill="currentColor" fill-rule="nonzero" d="M24.35 396.52c34.55 0 47.66-14.84 47.66-56.13v-91.32c0-9.79-7.93-17.72-17.71-17.72h-.58a17.72 17.72 0 0 0-17.71 17.72v88.6c0 17.56-4.58 23.5-20.2 23.5h-.41A15.4 15.4 0 0 0 0 376.56v2.05c0 9.32 7.22 17.05 16.53 17.68 2.26.13 4.44.22 6.36.22h1.46Zm121.96.25c42.25 0 59.74-14.1 59.74-47.23v-5.69c0-33.87-13.53-42.28-41.84-46.48l-13.1-1.98c-20.82-3.46-23.94-6.43-23.94-15.82v-.74c0-10.39 6.24-14.84 28.1-14.84h2.07c7.49 0 15.91.64 24.67 2.16a17.05 17.05 0 0 0 19.99-16.8c.1-1.1.1-2.15.1-3.16a13.1 13.1 0 0 0-9.49-12.6c-12.6-2.95-28.66-4.46-38.6-4.46h-3.33c-42.04 0-60.14 14.09-60.14 46.98v5.68c0 35.11 15.19 42.28 42.04 46l13.11 1.97c21.44 3.7 23.93 7.66 23.93 16.57v.74c0 11.12-6.45 14.83-28.1 14.83h-2.28c-7.85 0-16.63-.68-25.93-2.3a17.07 17.07 0 0 0-19.98 16.82c-.09 1.07-.09 2.12-.09 3.12a13.1 13.1 0 0 0 9.7 12.65 196.91 196.91 0 0 0 40.04 4.58h3.33Zm146.94 0c47.67 0 65.15-22.26 65.15-70.22v-28.69c0-48.95-20.19-68.73-64.73-68.73h-8.33c-47.24 0-64.72 22-64.72 68.73v28.69c0 50.44 20.18 70.22 64.93 70.22h7.7Zm-6.24-34.62c-21.44 0-30.39-9.89-30.39-34.37v-31.15c0-23.5 8.95-32.89 30.39-32.89h5c21.43 0 30.38 9.4 30.38 32.89v31.15c0 24.48-8.74 34.37-30.39 34.37h-4.99Zm189.81-58.09a7.32 7.32 0 0 1-13.46 3.98l-44.57-68.62a17.72 17.72 0 0 0-14.85-8.07h-6.18a17.7 17.7 0 0 0-17.72 17.72v127.99a17.5 17.5 0 0 0 17.49 17.48c9.65 0 17.48-7.82 17.48-17.48v-55.48a7.32 7.32 0 0 1 13.46-3.99l44.78 68.9a17.7 17.7 0 0 0 14.86 8.05h6.18a17.71 17.71 0 0 0 17.7-17.71V248.94a17.59 17.59 0 0 0-17.57-17.59 17.59 17.59 0 0 0-17.6 17.59v55.12Z"/><path fill="currentColor" d="M23.04 426.77A23.04 23.04 0 0 0 0 449.8 62.19 62.19 0 0 0 62.18 512h387.64A62.19 62.19 0 0 0 512 449.82a23.04 23.04 0 0 0-23.04-23.05H23.04ZM0 178.58a20.55 20.55 0 0 0 20.55 20.55h470.9A20.55 20.55 0 0 0 512 178.58C512 79.95 432.05 0 333.42 0H178.58C79.95 0 0 79.95 0 178.58Z"/></svg>
